<?xml version="1.0" encoding="UTF-8"?>
<svg id="Layer_1" data-name="Layer 1" xmlns="http://www.w3.org/2000/svg" viewBox="0 0 15.0135 15.0144">
  <defs>
    <style>
      .cls-1 {
        fill: #8da5f3;
      }

      .cls-1, .cls-2 {
        stroke-width: 0px;
      }

      .cls-2 {
        fill: #fc7f7f;
      }
    </style>
  </defs>
  <path class="cls-1" d="M4.3324,7.8915c-1.1341-.7541-2.6648-.446-3.4189.6881s-.446,2.6648.6881,3.4189c.3084.205.659.338,1.0258.389.1876,1.349,1.4331,2.2905,2.7821,2.1029s2.2905-1.4331,2.1029-2.7821c-.051-.3668-.184-.7174-.389-1.0258l3.56-3.56c1.1341.7541,2.6648.446,3.4189-.6881s.446-2.6648-.6881-3.4189c-.3084-.205-.659-.338-1.0258-.389-.1876-1.349-1.4331-2.2905-2.7821-2.1029-1.349.1876-2.2905,1.4331-2.1029,2.7821.051.3668.184.7174.389,1.0258l-3.56,3.56Z"/>
  <path class="cls-2" d="M5.0621,15.0144c-.6401,0-1.2607-.207-1.7808-.6006-.5347-.4043-.9092-.9648-1.0781-1.6025-.312-.084-.6108-.2178-.8784-.3965-.6597-.4385-1.1094-1.1074-1.2656-1.8848-.1562-.7764-.0005-1.5674.438-2.2271s1.1079-1.1094,1.8848-1.2656c.6401-.1279,1.2896-.0459,1.8657.2314l3.0229-3.0225c-.1313-.2749-.2207-.5708-.2622-.8721-.2251-1.6196.9092-3.1206,2.5283-3.3457,1.5039-.2085,2.8965.7471,3.2754,2.1748.3115.083.6113.2173.8789.3955,1.3623.9062,1.7324,2.7505.8271,4.1123-.8262,1.2441-2.4375,1.6621-3.75,1.0337l-3.0229,3.0234c.1313.2754.2207.5713.2622.8721.1094.7842-.0938,1.5645-.5718,2.1963-.4775.6318-1.1729,1.0391-1.9575,1.1484-.1392.0195-.2778.0293-.416.0293ZM2.9703,7.9797c-.6367,0-1.2622.3081-1.6401.8765-.291.4375-.394.9619-.2905,1.4766.1035.5156.4014.959.8389,1.25.2441.1621.5269.2695.8174.3096l.375.0518.0518.374c.0723.5205.3428.9814.7617,1.2979s.9365.4502,1.4556.3789c.5205-.0723.9814-.3428,1.2983-.7617.3164-.4189.4512-.9355.3789-1.4551-.04-.291-.1475-.5742-.3101-.8193l-.2261-.3408,4.1377-4.1382.3408.2266c.9033.6011,2.126.354,2.7266-.5488.5996-.9023.3535-2.1255-.5488-2.7256-.2441-.1626-.5264-.2695-.8174-.3101l-.375-.0518-.0518-.3745c-.1494-1.0737-1.1436-1.8232-2.2188-1.6768-1.0732.1494-1.8247,1.1445-1.6758,2.2183.0405.2905.1475.5737.3101.8179l.2261.3408-4.1382,4.1382-.3408-.2261c-.334-.2222-.7119-.3281-1.0854-.3281Z"/>
</svg>