<?xml version="1.0" encoding="UTF-8"?>
<svg id="Layer_1" data-name="Layer 1" xmlns="http://www.w3.org/2000/svg" viewBox="0 0 15.0009 15">
  <defs>
    <style>
      .cls-1 {
        fill: #8da5f3;
      }

      .cls-1, .cls-2 {
        stroke-width: 0px;
      }

      .cls-2 {
        fill: #fc7f7f;
      }
    </style>
  </defs>
  <path class="cls-1" d="M8.9141,7.5l5.293-5.293c.2861-.2861.3721-.7158.2168-1.0898-.1543-.3735-.5195-.6172-.9238-.6172H1.5C.9478.5.5.9478.5,1.5v12c0,.5527.4478,1,1,1h12c.4043,0,.7695-.2432.9238-.6172.1553-.374.0693-.8037-.2168-1.0898l-5.293-5.293Z"/>
  <path class="cls-2" d="M13.5,15H1.5c-.8271,0-1.5-.6729-1.5-1.5V1.5C0,.6729.6729,0,1.5,0h12c.6094,0,1.1533.3638,1.3857.9263.2334.5615.1055,1.2036-.3252,1.6343l-4.9395,4.9395,4.9395,4.9395c.4307.4307.5586,1.0723.3252,1.6348-.2314.5625-.7764.9258-1.3857.9258ZM1.5,1c-.2759,0-.5.2241-.5.5v12c0,.2754.2241.5.5.5h12c.2031,0,.3848-.1211.4619-.3076.0781-.1885.0352-.4023-.1084-.5459l-5.6465-5.6465L13.8535,1.8535c.1436-.1436.1865-.3574.1084-.5444-.0771-.188-.2588-.3091-.4619-.3091H1.5Z"/>
</svg>