<?xml version="1.0" encoding="UTF-8"?>
<svg id="Layer_1" data-name="Layer 1" xmlns="http://www.w3.org/2000/svg" version="1.1" viewBox="0 0 16 16">
  <defs>
    <style>
      .cls-1 {
        fill: #8da5f3;
      }

      .cls-1, .cls-2 {
        stroke-width: 0px;
      }

      .cls-2 {
        fill: #fc7f7f;
      }
    </style>
  </defs>
  <path class="cls-1" d="M7.615,11.175l.232-.232c-.117-.0628-.2262-.142-.325-.2369-.5679-.5557-.5781-1.4756-.0234-2.0527l1.147-1.147c.2725-.2725.6357-.4229,1.0225-.4229.3848,0,.7471.1494,1.0225.4214l.2971.2975.1874-.1874c.3419.2274.7203.347,1.1022.3877.2535-.2116.5707-.3469.9191-.3469h.6351c.2946-.1812.5584-.4219.7625-.7289.7541-1.1341.446-2.6648-.688-3.4189-.3084-.205-.659-.338-1.0258-.389-.1876-1.349-1.4332-2.2905-2.7821-2.1029s-2.2905,1.4331-2.1029,2.7821c.051.3668.184.7174.389,1.0258l-3.56,3.56c-1.1341-.7541-2.6648-.446-3.4189.6881-.7541,1.1342-.446,2.6648.6881,3.4189.3084.2051.659.338,1.0258.389.1876,1.3489,1.4331,2.2905,2.7821,2.1029,1.3489-.1876,2.2905-1.4332,2.1029-2.7821-.051-.3668-.184-.7174-.389-1.0258Z"/>
  <path class="cls-2" d="M8.2212,11.0811c-.2612-.0566-.501-.1846-.6992-.375-.0259-.0253-.0416-.0437-.0651-.0705l-.4842.4748.2261.3408c.1626.2451.27.5283.3101.8193.0723.5195-.0625,1.0361-.3789,1.4551-.3169.4189-.7778.6895-1.2983.7617-.519.0713-1.0366-.0625-1.4556-.3789s-.6895-.7773-.7617-1.2979l-.0518-.374-.375-.0518c-.2905-.04-.5732-.1475-.8174-.3096-.4375-.291-.7354-.7344-.8389-1.25-.1035-.5146-.0005-1.0391.2905-1.4766.3779-.5684,1.0034-.8765,1.6401-.8765.3735,0,.7515.106,1.0854.3281l.3408.2261,4.1382-4.1382-.2261-.3408c-.1626-.2441-.2695-.5273-.3101-.8179-.1489-1.0737.6025-2.0688,1.6758-2.2183,1.0752-.1465,2.0693.603,2.2188,1.6768l.0518.3745.375.0518c.291.0405.5732.1475.8174.3101.9023.6001,1.1484,1.8232.5488,2.7256-.6006.9028-1.8232,1.1499-2.7266.5488l-.3408-.2266-.4822.4746c.0207.0183.0425.0386.0623.0581l.8269.828c.1339.0493.2684.0904.4057.1195.2429-.4697.7214-.7966,1.2733-.7966h1.4401c.1362-.1365.2628-.2855.3734-.4521.9053-1.3618.5352-3.2061-.8271-4.1123-.2676-.1782-.5674-.3125-.8789-.3955-.3789-1.4277-1.7715-2.3833-3.2754-2.1748-1.6191.2251-2.7534,1.7261-2.5283,3.3457.0415.3013.1309.5972.2622.8721l-3.0229,3.0225c-.5762-.2773-1.2256-.3594-1.8657-.2314-.7769.1562-1.4463.606-1.8848,1.2656s-.5942,1.4507-.438,2.2271c.1562.7773.606,1.4463,1.2656,1.8848.2676.1787.5664.3125.8784.3965.1689.6377.5435,1.1982,1.0781,1.6025.52.3936,1.1406.6006,1.7808.6006.1382,0,.2769-.0098.416-.0293.7847-.1094,1.48-.5166,1.9575-1.1484.1146-.1516.2114-.3125.2939-.4791v-2.7689Z"/>
  <path class="cls-2" d="M9.264,8.125l-1.145,1.145c-.219.228-.212.589.014.81.222.213.574.213.794,0l.169-.168v4.912h4.909l-.167.165c-.219.229-.212.591.015.81.222.214.573.214.794,0l1.145-1.145c.224-.224.224-.584,0-.809l-1.145-1.143c-.226-.221-.588-.215-.809.014-.213.221-.213.573,0,.795l.167.168h-2.957l3.195-3.196v.237c0,.317.256.573.572.573.315,0,.571-.256.571-.573v-1.618c0-.315-.256-.571-.571-.571h-1.619c-.316,0-.572.256-.572.571,0,.316.256.572.572.572h.237l-3.194,3.194v-2.957l.167.168c.228.218.59.213.81-.015.214-.223.214-.572,0-.795l-1.144-1.145c-.224-.221-.586-.221-.808.001h0Z"/>
</svg>