<?xml version="1.0" encoding="UTF-8"?>
<svg id="Layer_1" data-name="Layer 1" xmlns="http://www.w3.org/2000/svg" version="1.1" viewBox="0 0 16 16">
  <defs>
    <style>
      .cls-1 {
        fill: #8da5f3;
      }

      .cls-1, .cls-2 {
        stroke-width: 0px;
      }

      .cls-2 {
        fill: #fc7f7f;
      }
    </style>
  </defs>
  <path class="cls-2" d="M4.4,1.4C3.8.3,2.4,0,1.4.6.3,1.2,0,2.5.6,3.6c.2.3.5.6.8.8v7.2c-1.1.6-1.4,2-.8,3,.6,1.1,2,1.4,3,.8.3-.2.6-.5.8-.8h7.2c.6,1.1,2,1.4,3,.8,1.1-.6,1.4-2,.8-3-.2-.3-.5-.6-.8-.8h0v-7.2c1.1-.6,1.4-2,.8-3-.6-1.1-2-1.4-3-.8-.3.2-.6.5-.8.8,0,0-7.2,0-7.2,0ZM11.6,3.6c.2.3.5.6.8.8v7.2c-.3.2-.6.5-.8.8h-7.2c-.2-.3-.5-.6-.8-.8v-7.2c.3-.2.6-.5.8-.8,0,0,7.2,0,7.2,0Z"/>
  <path class="cls-1" d="M9,4h-2.2c-1.4,0-2.5,1.1-2.5,2.5s.5,1.7,1.2,2.1v2.2c0,.7.6,1.2,1.2,1.2h2.4c.6,0,1.2-.5,1.2-1.2v-2.2c.7-.4,1.2-.7,1.2-2.1s-1.1-2.5-2.5-2.5ZM7.3,7.1h1.2v.6h-1.2v-.6ZM5.4,6.5c0-.3.3-.6.6-.6s.6.3.6.6-.3.6-.6.6-.6-.3-.6-.6ZM9.7,10.9h-.6v-.6h-.6v.6h-1.2v-.6h-.6v.6h-.6v-2.5h.6v.6h.6v-.6h1.2v.6h.6v-.6h.6v2.5ZM9.8,7.1c-.3,0-.6-.3-.6-.6s.3-.6.6-.6.6.3.6.6-.3.6-.6.6Z"/>
</svg>